# xmcd CD database file
#
# Track frame offsets:
#	150
#	65028
#	142577
#	219298
#
# Disc length: 3881 seconds
#
# Revision: 0
# Processed by: cddbd v1.5.2PL0 Copyright (c) Steve Scherf et al.
# Submitted via: CDex 1.70beta2
#
DISCID=320f2704
DTITLE=Klangwelten - Klang und Wasser
DYEAR=2008
DGENRE=New Age
TTITLE0=Ocean of Dreams
TTITLE1=Waves of freedom
TTITLE2=Rivers of spring
TTITLE3=Sea of sunbeams
EXTD=YEAR: 2008
EXTT0=
EXTT1=
EXTT2=
EXTT3=
PLAYORDER=
